<?xml version="1.0" encoding="UTF-8"?>
<svg width="512" height="512" viewBox="0 0 512 512" fill="none" xmlns="http://www.w3.org/2000/svg">
  <defs>
    <linearGradient id="g1" x1="0" y1="0" x2="1" y2="1">
      <stop offset="0%" stop-color="#0B63D6"/>
      <stop offset="100%" stop-color="#00D1FF"/>
    </linearGradient>
    <linearGradient id="g2" x1="0" y1="0" x2="1" y2="0">
      <stop offset="0%" stop-color="#0B63D6"/>
      <stop offset="100%" stop-color="#00A6FF"/>
    </linearGradient>
    <filter id="glow" x="-50%" y="-50%" width="200%" height="200%">
      <feGaussianBlur stdDeviation="6" result="b"/>
      <feMerge>
        <feMergeNode in="b"/>
        <feMergeNode in="SourceGraphic"/>
      </feMerge>
    </filter>
  </defs>
  <rect width="512" height="512" rx="32" fill="url(#g1)" opacity="0.06"/>

  <!-- Abstract DVA monogram -->
  <!-- D -->
  <path d="M130 160h76c58 0 94 36 94 96s-36 96-94 96h-76V160z m52 48v96h24c34 0 54-18 54-48s-20-48-54-48h-24z" fill="url(#g2)" opacity="0.95"/>
  <!-- V -->
  <path d="M236 160l58 184h-48l-34-116-34 116h-48l58-184h48z" fill="url(#g1)" opacity="0.95"/>
  <!-- A (abstract with bar) -->
  <path d="M318 344l64-184h48l-64 184h-48z" fill="url(#g2)" opacity="0.95"/>
  <rect x="312" y="236" width="92" height="18" rx="9" fill="#E6F7FF" opacity="0.85"/>

  <!-- Data graph lines -->
  <path d="M96 368c24-36 56-54 92-24 24 20 44 12 60-10 28-38 52-44 84-22 24 16 44 14 68-18" stroke="url(#g1)" stroke-width="4" fill="none" filter="url(#glow)"/>
  <g fill="#00D1FF">
    <circle cx="128" cy="344" r="4"/>
    <circle cx="188" cy="336" r="4"/>
    <circle cx="248" cy="314" r="4"/>
    <circle cx="308" cy="292" r="4"/>
    <circle cx="372" cy="274" r="4"/>
  </g>

  <!-- AI circuit pattern -->
  <g stroke="#7FE8FF" stroke-width="2" opacity="0.6">
    <path d="M420 168h-28v-28"/>
    <circle cx="392" cy="140" r="4" fill="#7FE8FF"/>
    <path d="M420 200h-44v-44"/>
    <circle cx="376" cy="156" r="3" fill="#7FE8FF"/>
    <path d="M92 196h28v28"/>
    <circle cx="120" cy="224" r="4" fill="#7FE8FF"/>
  </g>

  <!-- Title -->
  <g transform="translate(64,420)">
    <text x="0" y="0" fill="#0B63D6" font-family="Inter, system-ui, -apple-system, Segoe UI, Roboto" font-weight="800" font-size="28" letter-spacing="0.5">DataVision</text>
    <text x="184" y="0" fill="#00A6FF" font-family="Inter, system-ui, -apple-system, Segoe UI, Roboto" font-weight="700" font-size="28" letter-spacing="1">Academy</text>
  </g>
</svg>
